<?xml version="1.0" encoding="utf-8"?><svg viewBox="0 0 60 60" xmlns="http://www.w3.org/2000/svg" xmlns:xlink="http://www.w3.org/1999/xlink"><style>:root>svg{display:none}:root>svg:target{display:block}</style><svg fill="none" viewBox="0 0 60 60" id="about-icon-1" xmlns="http://www.w3.org/2000/svg"><path d="M58.242 3.516a1.757 1.757 0 100-3.516H30a1.757 1.757 0 100 3.516h8.79V14.18H37.03c-.467 0-.913.185-1.242.515l-7.032 7.031c-.33.33-.515.776-.515 1.243V30c0 .467.186.913.515 1.243L33.516 36V31.03l-1.758-1.758v-5.575l6.001-6.002h12.724l6.001 6.002v5.575l-1.757 1.758v4.971l4.758-4.758c.33-.33.515-.776.515-1.243v-7.031c0-.467-.185-.914-.515-1.243l-7.031-7.031a1.756 1.756 0 00-1.243-.515h-1.758V3.516h8.79zM52.852 45.938H7.148C3.265 45.938 0 49.084 0 52.968 0 56.853 3.265 60 7.148 60h45.704C56.735 60 60 56.852 60 52.969c0-3.884-3.265-7.032-7.148-7.032zM8.906 54.725a1.758 1.758 0 110-3.515 1.758 1.758 0 010 3.515zm7.031 0a1.758 1.758 0 110-3.515 1.758 1.758 0 010 3.515zm7.032 0a1.758 1.758 0 110-3.515 1.758 1.758 0 010 3.515zm7.031 0a1.758 1.758 0 110-3.515 1.758 1.758 0 010 3.515zm7.031 0a1.758 1.758 0 110-3.515 1.758 1.758 0 010 3.515zm7.032 0a1.758 1.758 0 110-3.515 1.758 1.758 0 010 3.515zm7.03 0a1.758 1.758 0 110-3.515 1.758 1.758 0 010 3.515zM21.21 28.242H10.665c-.972 0-1.758.786-1.758 1.758v12.422H22.97V30c0-.972-.787-1.758-1.758-1.758z" fill="#BB1219"/><path d="M49.453 28.242H38.79c-.971 0-1.758.786-1.758 1.758v12.422h14.18V30c0-.972-.786-1.758-1.758-1.758z" fill="#BB1219"/></svg><svg fill="none" viewBox="0 0 60 60" id="about-icon-2" xmlns="http://www.w3.org/2000/svg"><path d="M41.8 47.678a3.213 3.213 0 01-2.586-1.264 3.164 3.164 0 01-.621.012v11.967l2.571-1.928a1.07 1.07 0 011.286 0l2.571 1.928V46.426c-.214.018-.43.014-.643-.012a3.214 3.214 0 01-2.578 1.264zM0 49.821a3.214 3.214 0 003.214 3.215h33.24V48.75H0v1.071zM46.404 39.129a1.07 1.07 0 01-.609-1.47 1.115 1.115 0 00-1.479-1.488 1.072 1.072 0 01-1.47-.608 1.11 1.11 0 00-2.094 0 1.072 1.072 0 01-1.471.608 1.114 1.114 0 00-1.479 1.489 1.071 1.071 0 01-.608 1.469 1.115 1.115 0 000 2.1 1.07 1.07 0 01.608 1.47 1.113 1.113 0 001.479 1.487 1.073 1.073 0 011.47.608 1.11 1.11 0 002.094 0 1.072 1.072 0 011.471-.608 1.114 1.114 0 001.48-1.487 1.07 1.07 0 01.608-1.47 1.116 1.116 0 000-2.1z" fill="#BB1219"/><path d="M8.571 4.821v41.786h27.883v-1.19a3.22 3.22 0 01-.883-2.656 3.272 3.272 0 010-5.165 3.268 3.268 0 013.643-3.653 3.263 3.263 0 015.16 0 3.268 3.268 0 013.643 3.653 3.272 3.272 0 010 5.165c.124.96-.191 1.924-.857 2.625v7.453a3.18 3.18 0 001.054.197 3.215 3.215 0 003.214-3.215v-45c.003-.333.037-.666.101-.994.02-.102.05-.198.075-.298.053-.218.12-.432.2-.643a5.36 5.36 0 01.443-.878c.056-.09.107-.181.17-.267.03-.044.053-.092.085-.134H11.786A3.214 3.214 0 008.57 4.821zm37.5 22.5H27.857V25.18h18.214v2.143zm0-5.357H21.428v-2.142h24.643v2.142zM33.214 8.036H37.5v2.143h-4.286V8.036zm-10.714 0h8.571v2.143H22.5V8.036zm-3.214 5.357h21.428v2.143H19.286v-2.143zm-5.358 6.428h5.358v2.143h-5.358v-2.142zm0 5.358h11.786v2.143H13.928v-2.143zm0 5.357h21.429v2.143H13.928v-2.143zm0 5.357h18.215v2.143H13.928v-2.143zM56.786 1.607a3.214 3.214 0 00-3.215 3.214v1.072H60V4.82a3.214 3.214 0 00-3.214-3.214z" fill="#BB1219"/></svg><svg fill="none" viewBox="0 0 60 60" id="about-icon-3" xmlns="http://www.w3.org/2000/svg"><g clip-path="url(#cclip0_3174:333)" fill="#BB1219"><path d="M5.273 24.61h16.85l6.517 6.516a1.757 1.757 0 003-1.243v-5.274h4.102a5.28 5.28 0 005.274-5.273V5.273A5.28 5.28 0 0035.742 0H5.273A5.28 5.28 0 000 5.273v14.063a5.28 5.28 0 005.273 5.273zM8.79 7.03h23.438a1.758 1.758 0 010 3.516H8.789a1.758 1.758 0 010-3.516zm0 7.032h23.438a1.758 1.758 0 010 3.515H8.789a1.758 1.758 0 010-3.515zM24.023 39.844H22.09a8.74 8.74 0 00-1.283-3.086l1.371-1.371a1.758 1.758 0 10-2.485-2.486l-1.372 1.371a8.734 8.734 0 00-3.085-1.282v-1.935a1.758 1.758 0 00-3.516 0v1.934a8.738 8.738 0 00-3.086 1.283l-1.371-1.371a1.758 1.758 0 00-2.486 2.486l1.372 1.371a8.736 8.736 0 00-1.283 3.086H2.93a1.758 1.758 0 000 3.515h1.934a8.74 8.74 0 001.283 3.086l-1.371 1.371a1.758 1.758 0 102.486 2.486l1.371-1.371a8.737 8.737 0 003.086 1.283v1.934a1.758 1.758 0 003.515 0v-1.934a8.739 8.739 0 003.086-1.283l1.371 1.371c.344.344.793.515 1.243.515a1.758 1.758 0 001.243-3l-1.371-1.372a8.736 8.736 0 001.283-3.086h1.934a1.758 1.758 0 000-3.515zm-10.546 3.515a1.758 1.758 0 110-3.515 1.758 1.758 0 010 3.515zM59.12 46.644l-1.44-.832a13.19 13.19 0 00.102-1.632c0-.54-.034-1.085-.103-1.632l1.442-.833a1.758 1.758 0 00.643-2.4l-3.516-6.09a1.758 1.758 0 00-2.4-.644l-1.448.836a13.292 13.292 0 00-2.821-1.64v-1.66c0-.97-.787-1.758-1.758-1.758H40.79c-.97 0-1.758.787-1.758 1.758v1.66c-1 .426-1.943.975-2.82 1.64l-1.448-.836a1.758 1.758 0 00-2.401.644l-3.516 6.09a1.758 1.758 0 00.643 2.4l1.442.832a13.19 13.19 0 00-.103 1.633c0 .539.035 1.084.103 1.632l-1.441.832a1.758 1.758 0 00-.644 2.401l3.516 6.09a1.758 1.758 0 002.401.643l1.447-.836c.878.666 1.821 1.214 2.821 1.64v1.66c0 .971.787 1.758 1.758 1.758h7.031c.971 0 1.758-.787 1.758-1.758v-1.66c1-.426 1.943-.974 2.82-1.64l1.448.836c.841.485 1.916.197 2.401-.643l3.516-6.09a1.758 1.758 0 00-.643-2.401zm-14.814 2.81a5.28 5.28 0 01-5.274-5.274 5.28 5.28 0 015.274-5.274 5.28 5.28 0 015.273 5.274 5.28 5.28 0 01-5.273 5.273z"/></g><defs><clipPath id="cclip0_3174:333"><path fill="#fff" d="M0 0h60v60H0z"/></clipPath></defs></svg><svg fill="none" viewBox="0 0 60 60" id="about-icon-4" xmlns="http://www.w3.org/2000/svg"><path d="M6.79 38.039c-3.744 0-6.79 3.065-6.79 6.833 0 1.192.312 2.368.901 3.4.028.048.053.098.077.148l4.867 8.708a.782.782 0 001.35.03l5.226-8.468.2-.32.03-.049.021-.038a6.86 6.86 0 00.908-3.411c0-3.768-3.046-6.833-6.79-6.833zm0 9.582a2.742 2.742 0 01-2.733-2.75c0-1.52 1.223-2.751 2.733-2.751a2.742 2.742 0 012.733 2.75c0 1.52-1.224 2.75-2.733 2.75z" fill="#BB1219"/><path d="M52.83 26.195h-.043a1.99 1.99 0 01-1.693-1.021l-7.242-12.959a2.037 2.037 0 01-.066-.128 10.899 10.899 0 01-1.04-7.833 43.205 43.205 0 00-4.967-1.582c.13 3.207-.727 6.325-2.496 9.053-1.775 2.738-4.38 4.961-7.534 6.43a33.81 33.81 0 01-1.824.764c-1.42.563-2.76 1.095-3.594 2.005-.465.508-.84 1.212-1.238 1.958-.41.77-.875 1.643-1.52 2.436-1.372 1.685-3.481 2.889-5.94 3.388-2.457.498-4.557.528-6.422.091-2.317-.543-3.058-.203-3.711.096-.294.134-.626.286-1.033.38-.048.01-.295.056-.612.112-.023.48-.036.962-.036 1.447 0 1.16.144 2.793.328 4.257a10.654 10.654 0 014.643-1.06c5.941 0 10.774 4.864 10.774 10.843a10.895 10.895 0 01-1.459 5.449l-.029.049-.085.14c-.025.038-.071.113-.187.3l-2.162 3.503c1.12.81 2.06 1.418 3.307 2.079 1.046-.774.318-.237 1.046-.774 2.107-1.552 4.551-4.546 5.043-6.985.522-2.592.386-5.299.242-8.164l-.031-.634c-.111-2.264-.154-4.476.535-6.636.887-2.78 2.947-4.87 5.377-5.453 2.507-.602 4.764.38 6.757 1.246.398.173.775.337 1.145.485 4.422 1.767 9.496 1.542 13.904 1.192l.727-.058c2.63-.214 5.345-.434 8.091 0-.037-3.343-.918-7.266-2.075-10.526l-3.187 5.164a1.99 1.99 0 01-1.692.947z" fill="#BB1219"/><path d="M8.114 24.892c1.298.304 2.845.266 4.73-.117 1.56-.317 2.855-1.026 3.645-1.997.4-.492.736-1.123 1.093-1.791.474-.89 1.011-1.9 1.82-2.782 1.453-1.585 3.37-2.345 5.062-3.016.569-.226 1.107-.439 1.612-.674 5.144-2.395 8.082-7.038 7.696-12.12-.014-.189-.02-.36-.02-.516a22.398 22.398 0 00-2.949-.215c-14.026 0-25.724 10.025-28.406 23.344 1.206-.474 2.822-.795 5.717-.116zM59.07 10.283l.023-.04A6.86 6.86 0 0060 6.834C60 3.065 56.954 0 53.21 0s-6.79 3.065-6.79 6.833a6.86 6.86 0 00.902 3.4c.027.048.053.097.076.148l4.867 8.708a.782.782 0 001.35.03l5.227-8.468.199-.32.03-.048zm-5.86-.701a2.742 2.742 0 01-2.733-2.75c0-1.52 1.224-2.751 2.733-2.751a2.742 2.742 0 012.733 2.75c0 1.52-1.223 2.751-2.733 2.751zM59.379 34.604c-2.342-.406-4.781-.207-7.364.003l-.735.06c-4.855.384-10.47.62-15.688-1.464-.425-.17-.847-.353-1.255-.53-1.56-.679-3.034-1.32-4.252-1.027-1.067.256-2.05 1.346-2.507 2.778-.485 1.52-.446 3.261-.35 5.214l.031.628c.15 2.987.306 6.077-.317 9.165-.631 3.133-3.013 6.72-5.773 8.852C24.216 59.379 27.479 60 30.803 60c14.73 0 26.894-11.059 28.741-25.376a1.946 1.946 0 01-.165-.02z" fill="#BB1219"/></svg><svg fill="none" viewBox="0 0 60 60" id="about-icon-5" xmlns="http://www.w3.org/2000/svg"><path d="M10.548 52.969v6.853A8.813 8.813 0 0017.4 52.97h-6.853zM31.756 52.969v6.853a8.813 8.813 0 006.854-6.853h-6.854z" fill="#BB1219"/><path d="M58.24 38.906h-5.273V30c0-.972-.786-1.758-1.757-1.758H31.756v-5.39h8.79c.971 0 1.757-.787 1.757-1.758v-3.516h-24.61v3.516c0 .971.787 1.758 1.759 1.758h8.789v5.39H8.79c-.972 0-1.758.786-1.758 1.758v8.906H1.76c-.972 0-1.758.787-1.758 1.758v17.578C.001 59.214.787 60 1.759 60h5.273v-8.79c0-.97.786-1.757 1.758-1.757h8.79v-8.789c0-.971-.787-1.758-1.759-1.758h-5.273v-7.148H28.24v7.148h-5.274c-.971 0-1.757.787-1.757 1.758v17.578c0 .972.786 1.758 1.757 1.758h5.274v-8.79c0-.97.786-1.757 1.758-1.757h8.789v-8.789c0-.971-.786-1.758-1.758-1.758h-5.274v-7.148h17.696v7.148h-5.274c-.971 0-1.758.787-1.758 1.758v17.578c0 .972.787 1.758 1.758 1.758h5.274v-8.79c0-.97.786-1.757 1.758-1.757h8.789v-8.789c0-.971-.787-1.758-1.758-1.758z" fill="#BB1219"/><path d="M59.82 52.969h-6.853v6.853a8.813 8.813 0 006.854-6.853zM17.694 8.79h24.61v5.273h-24.61V8.788zM42.303 1.758C42.303.786 41.517 0 40.545 0H19.452c-.972 0-1.758.786-1.758 1.758v3.515h24.61V1.758z" fill="#BB1219"/></svg><svg fill="none" viewBox="0 0 60 60" id="about-icon-6" xmlns="http://www.w3.org/2000/svg"><g clip-path="url(#fclip0_3174:135)" fill="#BB1219"><path d="M16.267 45.526l-5.073-.738-2.27-4.597H7.717l-2.269 4.597-5.074.738L0 46.675l3.671 3.579-.866 5.053.977.71 4.538-2.386 4.538 2.386.978-.71-.867-5.053 3.672-3.579-.374-1.15zM60 46.675l-.373-1.15-5.074-.737-2.269-4.597h-1.209l-2.269 4.597-5.073.738-.374 1.149 3.672 3.579-.867 5.053.978.71 4.538-2.386 4.538 2.386.977-.71-.866-5.053L60 46.675zM37.947 45.526l-5.074-.738-2.269-4.597h-1.208l-2.27 4.597-5.073.738-.373 1.149 3.67 3.579-.866 5.053.978.71L30 53.631l4.538 2.386.978-.71-.867-5.053 3.671-3.579-.373-1.15zM30 3.983c-8.756 0-15.879 7.123-15.879 15.879S21.244 35.74 30 35.74s15.879-7.123 15.879-15.88c0-8.755-7.123-15.878-15.879-15.878zM28.642 25.5l-6.279-6.279 2.486-2.486 3.793 3.793 6.509-6.51 2.486 2.486-8.995 8.995z"/></g><defs><clipPath id="fclip0_3174:135"><path fill="#fff" d="M0 0h60v60H0z"/></clipPath></defs></svg><svg fill="none" viewBox="0 0 14 16" id="arrow-left" xmlns="http://www.w3.org/2000/svg"><path d="M0 8L13.5.206v15.588L0 8z" fill="#2B2B2B"/></svg><svg fill="none" viewBox="0 0 14 16" id="arrow-right" xmlns="http://www.w3.org/2000/svg"><path d="M14 8L.5 15.794V.206L14 8z" fill="#2B2B2B"/></svg><svg fill="none" viewBox="0 0 22 22" id="close-btn" xmlns="http://www.w3.org/2000/svg"><path fill-rule="evenodd" clip-rule="evenodd" d="M.958 19.99a1.007 1.007 0 000 1.407.967.967 0 001.384 0l8.505-8.648 8.811 8.96a.967.967 0 001.384 0 1.007 1.007 0 000-1.407l-8.812-8.96 9.483-9.643a1.007 1.007 0 000-1.407.967.967 0 00-1.383 0l-9.483 9.643L1.67.604a.967.967 0 00-1.383 0 1.007 1.007 0 000 1.407l9.176 9.33L.958 19.99z" fill="#2B2B2B"/></svg></svg>