<?xml version="1.0" encoding="utf-8"?><svg viewBox="0 0 22 22" xmlns="http://www.w3.org/2000/svg" xmlns:xlink="http://www.w3.org/1999/xlink"><style>:root>svg{display:none}:root>svg:target{display:block}</style><svg  viewBox="0 0 14 16" id="arrow-left" xmlns="http://www.w3.org/2000/svg"><path d="M0 8L13.5.206v15.588L0 8z" /></svg><svg  viewBox="0 0 14 16" id="arrow-right" xmlns="http://www.w3.org/2000/svg"><path d="M14 8L.5 15.794V.206L14 8z" /></svg><svg fill="none" viewBox="0 0 22 22" id="close-btn" xmlns="http://www.w3.org/2000/svg"><path fill-rule="evenodd" clip-rule="evenodd" d="M.958 19.99a1.007 1.007 0 000 1.407.967.967 0 001.384 0l8.505-8.648 8.811 8.96a.967.967 0 001.384 0 1.007 1.007 0 000-1.407l-8.812-8.96 9.483-9.643a1.007 1.007 0 000-1.407.967.967 0 00-1.383 0l-9.483 9.643L1.67.604a.967.967 0 00-1.383 0 1.007 1.007 0 000 1.407l9.176 9.33L.958 19.99z" fill="#2B2B2B"/></svg></svg>