<svg width="22" height="22" viewBox="0 0 22 22" fill="none" xmlns="http://www.w3.org/2000/svg">
<path fill-rule="evenodd" clip-rule="evenodd" d="M0.958103 19.9895C0.576008 20.3781 0.576008 21.008 0.958104 21.3965C1.3402 21.7851 1.9597 21.7851 2.34179 21.3965L10.8465 12.7485L19.6582 21.7087C20.0403 22.0973 20.6598 22.0973 21.0419 21.7087C21.424 21.3202 21.424 20.6903 21.0419 20.3017L12.2302 11.3415L21.7135 1.69852C22.0956 1.30999 22.0956 0.680053 21.7135 0.291521C21.3314 -0.0970115 20.7119 -0.0970105 20.3298 0.291522L10.8465 9.93454L1.67026 0.60371C1.28817 0.215178 0.668667 0.215178 0.286571 0.60371C-0.0955242 0.992243 -0.0955236 1.62218 0.286572 2.01071L9.46282 11.3415L0.958103 19.9895Z" fill="#2B2B2B"/>
</svg>
